/* XPM */
static char *close_active[] = {
/* columns rows colors chars-per-pixel */
"20 24 66 1 ",
"  c #48668A",
". c #B2CCED",
"X c #9EBDE5",
"o c #86ABD9",
"O c #4E76A8",
"+ c #455D7C",
"@ c #7AA1D1",
"# c #CEDBED",
"$ c #78A0D1",
"% c #82A8D7",
"& c #94B6E1",
"* c #9BBBE4",
"= c #7AA2D2",
"- c #E1EAF6",
"; c #749DCF",
": c #7DA4D4",
"> c #CFDCED",
", c #5A80AF",
"< c #99B9E3",
"1 c #81A7D6",
"2 c #91B3DF",
"3 c #97B8E2",
"4 c #7BA2D2",
"5 c #7099CC",
"6 c #99BAE3",
"7 c #5A7FAE",
"8 c #8BAFDC",
"9 c #93B5E0",
"0 c #84A9D8",
"q c #7FA5D5",
"w c #5A80AE",
"e c #8DB1DD",
"r c #7293BC",
"t c #95B6E1",
"y c #557BAC",
"u c #537AAB",
"i c #83A9D7",
"p c #7EA5D4",
"a c #88ADDB",
"s c #7B9ECC",
"d c #89ADDA",
"f c #648EC3",
"g c #83A8D7",
"h c #6D94C5",
"j c #80A2CF",
"k c #7C9FCD",
"l c #6F95C5",
"z c #8FB1DD",
"x c #7197C7",
"c c #8DB0DC",
"v c #7CA3D3",
"b c #90B2DE",
"n c #80A6D5",
"m c #87ABD9",
"M c #8CAFDB",
"N c #8AAEDB",
"B c #84A9D7",
"V c #DCE7F4",
"C c #729BCD",
"Z c #7399C8",
"A c #7EA1CE",
"S c #86AAD8",
"D c #C3D3E9",
"F c #BACFEC",
"G c #C0D0E8",
"H c #ABC4E4",
/* pixels */
"++++++++++++++++++++",
"....................",
"66o%%%%%%%%%%%%%%o66",
"30C              C03",
"05 8............8 50",
": oXXXXXXXXXXXXXX5 :",
"p X**************o p",
"n X<<<Ouj<<jurF<<o n",
"1 X33OD#,AA,#Vr33o 1",
"g Xtty#-#7w#-#ytto g",
"B X99k,#->>-#,k99o B",
"S X222s7>-->ws222o S",
"m XoooZw>-->7Zoooo m",
"d Xiix,#->>-#,xiio d",
"N X11y#-#w7#-#y11o N",
"M XqqOG#,ll,#Vrqqo M",
"c X:::Ouh::hurH::o c",
"z X==============o z",
"b o$$$$$$$$$$$$$$5 b",
"ae f;;;;;;;;;;;;f ea",
"vo8              8ov",
"44e&&&&&&&&&&&&&&e44",
"@@@@@@@@@@@@@@@@@@@@",
"OOOOOOOOOOOOOOOOOOOO"
};
