/* XPM */
static char *close_pressed[] = {
/* columns rows colors chars-per-pixel */
"20 24 73 1 ",
"  c #455D7C",
". c #7099CC",
"X c #4E76A8",
"o c #99BAE3",
"O c #B2CCED",
"+ c #7AA1D1",
"@ c #86ABD9",
"# c #CEDBED",
"$ c #719ACD",
"% c #7BA2D3",
"& c #7AA1D2",
"* c #6690C4",
"= c #E1EAF6",
"- c #5A80AE",
"; c #729ACD",
": c #CFDCED",
"> c #79A0D2",
", c #769ED0",
"< c #759DCF",
"1 c #7BA2D2",
"2 c #97B8E2",
"3 c #739CCE",
"4 c #78A0D1",
"5 c #779ED0",
"6 c #779FD1",
"7 c #749CCF",
"8 c #739BCE",
"9 c #5A7FAE",
"0 c #7293BC",
"q c #7CA3D3",
"w c #557BAC",
"e c #6990C2",
"r c #537AAB",
"t c #96B7E1",
"y c #7DA4D3",
"u c #89ADDA",
"i c #678EC1",
"p c #678FC1",
"a c #6A91C3",
"s c #6B91C3",
"d c #DCE7F4",
"f c #668DC0",
"g c #B7D0EF",
"h c #688FC1",
"j c #90B3DE",
"k c #A2C0E5",
"l c #A9C2E3",
"z c #A5BFE0",
"x c #90B2DD",
"c c #A5C2E7",
"v c #82A8D6",
"b c #ACC8EA",
"n c #8FB2DE",
"m c #9EBDE4",
"M c #93B5E0",
"N c #9BBAE2",
"B c #83A9D7",
"V c #94B5DF",
"C c #BFD0E7",
"Z c #8DB1DD",
"A c #B3CDED",
"S c #A9C5E8",
"D c #84AAD8",
"F c #8CB0DC",
"G c #92B4DF",
"H c #B0CAEB",
"J c #BECFE6",
"K c #97B8E0",
"L c #81A7D6",
"P c #8DB0DC",
"I c #80A6D5",
"U c #94B6E0",
"Y c #7EA5D4",
/* pixels */
"                    ",
"OOOOOOOOOOOOOOOOOOOO",
"oooooooooooooooooooo",
"222              222",
"tt .............. gt",
"U *%%%%%%%%%%%%%%% g",
"M *&&&&&&&&&&&&&&& A",
"G *>>>Xrs>>sr0l>>> H",
"j *44XC#-aa-#d0444 b",
"n *66w#=#9-#=#w666 S",
"Z *55e-#=::=#-e555 c",
"F *,,,e9:==:-e,,,, k",
"@ *<<<h-:==:9h<<<< m",
"D *77p-#=::=#-p777 N",
"B *33w#=#-9#=#w333 K",
"v *88XJ#-ii-#d0888 V",
"L *;;;Xrf;;fr0z;;; x",
"I *$$$$$$$$$$$$$$$ P",
"Y *............... u",
"yy .............. uy",
"qq@              @qq",
"111@@@@@@@@@@@@@@111",
"++++++++++++++++++++",
"XXXXXXXXXXXXXXXXXXXX"
};
