/* XPM */
static char *hide_active[] = {
/* columns rows colors chars-per-pixel */
"20 24 45 1 ",
"  c #48668A",
". c #4E76A8",
"X c #B2CCED",
"o c #86ABD9",
"O c #9EBDE5",
"+ c #455D7C",
"@ c #7AA1D1",
"# c #97B8E2",
"$ c #E1EAF6",
"% c #95B6E1",
"& c #82A8D7",
"* c #9BBBE4",
"= c #99B9E3",
"- c #7AA2D2",
"; c #78A0D1",
": c #93B5E0",
"> c #91B3DF",
", c #94B6E1",
"< c #749DCF",
"1 c #81A7D6",
"2 c #7DA4D4",
"3 c #83A9D7",
"4 c #8DB1DD",
"5 c #7099CC",
"6 c #7BA2D2",
"7 c #8BAFDC",
"8 c #84A9D8",
"9 c #7FA5D5",
"0 c #99BAE3",
"q c #7EA5D4",
"w c #84A9D7",
"e c #89ADDA",
"r c #8DB0DC",
"t c #87ABD9",
"y c #88ADDB",
"u c #83A8D7",
"i c #8AAEDB",
"p c #90B2DE",
"a c #80A6D5",
"s c #7CA3D3",
"d c #648EC3",
"f c #729BCD",
"g c #8CAFDB",
"h c #86AAD8",
"j c #8FB1DD",
/* pixels */
"++++++++++++++++++++",
"XXXXXXXXXXXXXXXXXXXX",
"00o&&&&&&&&&&&&&&o00",
"#8f              f8#",
"85 7XXXXXXXXXXXX7 58",
"2 oOOOOOOOOOOOOOO5 2",
"q O**************o q",
"a O==============o a",
"1 O##############o 1",
"u O%%%%%%%%%%%%%%o u",
"w O::::::::::::::o w",
"h O>>>>>>>>>>>>>>o h",
"t Oooooooooooooooo t",
"e O33..........33o e",
"i O11.$$$$$$$$.11o i",
"g O99.$$$$$$$$.99o g",
"r O22..........22o r",
"j O--------------o j",
"p o;;;;;;;;;;;;;;5 p",
"y4 d<<<<<<<<<<<<d 4y",
"so7              7os",
"664,,,,,,,,,,,,,,466",
"@@@@@@@@@@@@@@@@@@@@",
"...................."
};
