/* XPM */
static char *hide_pressed[] = {
/* columns rows colors chars-per-pixel */
"20 24 54 1 ",
"  c #455D7C",
". c #4E76A8",
"X c #7099CC",
"o c #7AA1D1",
"O c #B2CCED",
"+ c #99BAE3",
"@ c #86ABD9",
"# c #E1EAF6",
"$ c #759DCF",
"% c #779ED0",
"& c #779FD1",
"* c #7BA2D3",
"= c #79A0D2",
"- c #719ACD",
"; c #78A0D1",
": c #7AA1D2",
"> c #769ED0",
", c #6690C4",
"< c #97B8E2",
"1 c #7BA2D2",
"2 c #749CCF",
"3 c #739BCE",
"4 c #739CCE",
"5 c #729ACD",
"6 c #7CA3D3",
"7 c #7DA4D3",
"8 c #96B7E1",
"9 c #89ADDA",
"0 c #B7D0EF",
"q c #9BBAE2",
"w c #80A6D5",
"e c #7EA5D4",
"r c #94B5DF",
"t c #97B8E0",
"y c #8DB1DD",
"u c #9EBDE4",
"i c #90B2DD",
"p c #8FB2DE",
"a c #94B6E0",
"s c #8CB0DC",
"d c #ACC8EA",
"f c #B3CDED",
"g c #84AAD8",
"h c #82A8D6",
"j c #A9C5E8",
"k c #83A9D7",
"l c #8DB0DC",
"z c #93B5E0",
"x c #A5C2E7",
"c c #81A7D6",
"v c #B0CAEB",
"b c #A2C0E5",
"n c #90B3DE",
"m c #92B4DF",
/* pixels */
"                    ",
"OOOOOOOOOOOOOOOOOOOO",
"++++++++++++++++++++",
"<<<              <<<",
"88 XXXXXXXXXXXXXX 08",
"a ,*************** 0",
"z ,::::::::::::::: f",
"m ,=============== v",
"n ,;;;;;;;;;;;;;;; d",
"p ,&&&&&&&&&&&&&&& j",
"y ,%%%%%%%%%%%%%%% x",
"s ,>>>>>>>>>>>>>>> b",
"@ ,$$$$$$$$$$$$$$$ u",
"g ,22..........222 q",
"k ,44.########.444 t",
"h ,33.########.333 r",
"c ,55..........555 i",
"w ,--------------- l",
"e ,XXXXXXXXXXXXXXX 9",
"77 XXXXXXXXXXXXXX 97",
"66@              @66",
"111@@@@@@@@@@@@@@111",
"oooooooooooooooooooo",
"...................."
};
