/* XPM */
static char *maximize_pressed[] = {
/* columns rows colors chars-per-pixel */
"20 24 54 1 ",
"  c #455D7C",
". c #4E76A8",
"X c #7099CC",
"o c #E1EAF6",
"O c #B2CCED",
"+ c #7AA1D1",
"@ c #99BAE3",
"# c #86ABD9",
"$ c #7BA2D3",
"% c #7AA1D2",
"& c #719ACD",
"* c #6690C4",
"= c #749CCF",
"- c #769ED0",
"; c #759DCF",
": c #7BA2D2",
"> c #97B8E2",
", c #739BCE",
"< c #779FD1",
"1 c #79A0D2",
"2 c #78A0D1",
"3 c #739CCE",
"4 c #729ACD",
"5 c #779ED0",
"6 c #7CA3D3",
"7 c #7DA4D3",
"8 c #96B7E1",
"9 c #B7D0EF",
"0 c #89ADDA",
"q c #81A7D6",
"w c #B0CAEB",
"e c #97B8E0",
"r c #92B4DF",
"t c #94B6E0",
"y c #9BBAE2",
"u c #93B5E0",
"i c #A2C0E5",
"p c #84AAD8",
"a c #80A6D5",
"s c #90B3DE",
"d c #A9C5E8",
"f c #B3CDED",
"g c #90B2DD",
"h c #8CB0DC",
"j c #8DB1DD",
"k c #8FB2DE",
"l c #94B5DF",
"z c #83A9D7",
"x c #7EA5D4",
"c c #9EBDE4",
"v c #82A8D6",
"b c #A5C2E7",
"n c #8DB0DC",
"m c #ACC8EA",
/* pixels */
"                    ",
"OOOOOOOOOOOOOOOOOOOO",
"@@@@@@@@@@@@@@@@@@@@",
">>>              >>>",
"88 XXXXXXXXXXXXXX 98",
"t *$$$$$$$$$$$$$$$ 9",
"u *%%%%%%%%%%%%%%% f",
"r *11..........111 w",
"s *22.oooooooo.222 m",
"k *<<.oooooooo.<<< d",
"j *55.o......o.555 b",
"h *--.o.----.o.--- i",
"# *;;.o.;;;;.o.;;; c",
"p *==.o.====.o.=== y",
"z *33.o......o.333 e",
"v *,,.oooooooo.,,, l",
"q *44..........444 g",
"a *&&&&&&&&&&&&&&& n",
"x *XXXXXXXXXXXXXXX 0",
"77 XXXXXXXXXXXXXX 07",
"66#              #66",
":::##############:::",
"++++++++++++++++++++",
"...................."
};
