/* XPM */
static char *maximize_toggled_active[] = {
/* columns rows colors chars-per-pixel */
"20 24 47 1 ",
"  c #48668A",
". c #4E76A8",
"X c #86ABD9",
"o c #9EBDE5",
"O c #E1EAF6",
"+ c #455D7C",
"@ c #7AA1D1",
"# c #99BAE3",
"$ c #7DA4D4",
"% c #78A0D1",
"& c #7AA2D2",
"* c #94B6E1",
"= c #9BBBE4",
"- c #99B9E3",
"; c #82A8D7",
": c #749DCF",
"> c #B2CCED",
", c #81A7D6",
"< c #97B8E2",
"1 c #95B6E1",
"2 c #91B3DF",
"3 c #7FA5D5",
"4 c #83A9D7",
"5 c #93B5E0",
"6 c #84A9D8",
"7 c #7099CC",
"8 c #7BA2D2",
"9 c #8DB1DD",
"0 c #97B9E2",
"q c #8BAFDC",
"w c #8CAFDB",
"e c #83A8D7",
"r c #8AAEDB",
"t c #8FB1DD",
"y c #90B2DE",
"u c #7EA5D4",
"i c #7CA3D3",
"p c #80A6D5",
"a c #88ADDB",
"s c #648EC3",
"d c #86AAD8",
"f c #729BCD",
"g c #8DB0DC",
"h c #84A9D7",
"j c #89ADDA",
"k c #96B8E1",
"l c #87ABD9",
/* pixels */
"++++++++++++++++++++",
"####################",
"00X;;;;;;;;;;;;;;X00",
"k6f              f6k",
"67 q>>>>>>>>>>>>q 76",
"$ Xoooooooooooooo7 $",
"u o==============X u",
"p o--------------X p",
", o<<<........<<<X ,",
"e o111.OOOOOO.111X e",
"h o555.OOOOOO.555X h",
"d o222.O....O.222X d",
"l oXXX.O.XX.O.XXXX l",
"j o444.O....O.444X j",
"r o,,,.OOOOOO.,,,X r",
"w o333........333X w",
"g o$$$$$$$$$$$$$$X g",
"t o&&&&&&&&&&&&&&X t",
"y X%%%%%%%%%%%%%%7 y",
"a9 s::::::::::::s 9a",
"iXq              qXi",
"889**************988",
"@@@@@@@@@@@@@@@@@@@@",
"...................."
};
