/* XPM */
static char *maximize_toggled_pressed[] = {
/* columns rows colors chars-per-pixel */
"20 24 54 1 ",
"  c #455D7C",
". c #4E76A8",
"X c #7099CC",
"o c #E1EAF6",
"O c #7AA1D1",
"+ c #99BAE3",
"@ c #97B9E2",
"# c #86ABD9",
"$ c #7BA2D3",
"% c #79A0D2",
"& c #7AA1D2",
"* c #729ACD",
"= c #719ACD",
"- c #6690C4",
"; c #759DCF",
": c #769ED0",
"> c #78A0D1",
", c #749CCF",
"< c #779FD1",
"1 c #739CCE",
"2 c #739BCE",
"3 c #779ED0",
"4 c #7BA2D2",
"5 c #96B8E1",
"6 c #7CA3D3",
"7 c #95B7E1",
"8 c #7DA4D3",
"9 c #B7D0EF",
"0 c #89ADDA",
"q c #9EBDE4",
"w c #7EA5D4",
"e c #8DB1DD",
"r c #A5C2E7",
"t c #91B4DF",
"y c #93B6E0",
"u c #A9C5E8",
"i c #92B5DF",
"p c #83A9D7",
"a c #94B5DF",
"s c #81A7D6",
"d c #8EB2DD",
"f c #8CB0DC",
"g c #90B2DD",
"h c #8DB0DC",
"j c #82A8D6",
"k c #90B3DE",
"l c #A2C0E5",
"z c #80A6D5",
"x c #B0CAEB",
"c c #ACC8EA",
"v c #97B8E0",
"b c #84AAD8",
"n c #9BBAE2",
"m c #B3CDED",
/* pixels */
"                    ",
"++++++++++++++++++++",
"@@@@@@@@@@@@@@@@@@@@",
"555              555",
"77 XXXXXXXXXXXXXX 97",
"y -$$$$$$$$$$$$$$$ 9",
"i -&&&&&&&&&&&&&&& m",
"t -%%%%%%%%%%%%%%% x",
"k ->>>........>>>> c",
"d -<<<.oooooo.<<<< u",
"e -333.oooooo.3333 r",
"f -:::.o....o.:::: l",
"# -;;;.o.;;.o.;;;; q",
"b -,,,.o....o.,,,, n",
"p -111.oooooo.1111 v",
"j -222........2222 a",
"s -*************** g",
"z -=============== h",
"w -XXXXXXXXXXXXXXX 0",
"88 XXXXXXXXXXXXXX 08",
"66#              #66",
"444##############444",
"OOOOOOOOOOOOOOOOOOOO",
"...................."
};
