/* XPM */
static char * top_left_active_xpm[] = {
"5 24 29 1",
" 	c None",
".	c #455D7C",
"+	c #9EBDE5",
"@	c #B2CCED",
"#	c #4E76A8",
"$	c #8DB1DD",
"%	c #84AAD8",
"&	c #94B6E0",
"*	c #90B3DE",
"=	c #86ABD9",
"-	c #48668A",
";	c #7DA4D3",
">	c #8FB2DE",
",	c #93B5E0",
"'	c #82A8D6",
")	c #81A7D6",
"!	c #7BA2D2",
"~	c #7EA5D4",
"{	c #92B4DF",
"]	c #80A6D5",
"^	c #8CB0DC",
"/	c #83A9D7",
"(	c #7CA3D3",
"_	c #7AA1D1",
":	c #507BB1",
"<	c #97B8E2",
"[	c #96B7E1",
"}	c #6D6A68",
"|	c #FFFFFF",
"     ",
"   -:",
"  -@@",
" -@<<",
" :@[[",
".+&&&",
".+,,,",
".+{{{",
".+***",
".+>>>",
".+$$$",
".+^^^",
".+===",
".+%%%",
".+///",
".+'''",
".+)))",
".+]]]",
".+~~~",
".+;;;",
".+(((",
".+!!!",
".+___",
"}####"};
