/* XPM */
static char * top_right_active_xpm[] = {
"5 24 30 1",
" 	c None",
".	c #7BA2D3",
"+	c #455D7C",
"@	c #4E76A8",
"#	c #7CA3D3",
"$	c #8DB1DD",
"%	c #94B6E0",
"&	c #86ABD9",
"*	c #83A9D7",
"=	c #92B4DF",
"-	c #7AA1D1",
";	c #84AAD8",
">	c #7BA2D2",
",	c #93B5E0",
"'	c #90B3DE",
")	c #7DA4D3",
"!	c #81A7D6",
"~	c #8CB0DC",
"{	c #8FB2DE",
"]	c #48668A",
"^	c #80A6D5",
"/	c #82A8D6",
"(	c #7EA5D4",
"_	c #ADC8EB",
":	c #82A8D7",
"<	c #507BB1",
"[	c #96B7E1",
"}	c #97B8E2",
"|	c #6D6A68",
"1	c #FFFFFF",
"     ",
"<]   ",
"__]  ",
"}}:] ",
"[[:< ",
"%%%.+",
",,,.+",
"===.+",
"'''.+",
"{{{.+",
"$$$.+",
"~~~.+",
"&&&.+",
";;;.+",
"***.+",
"///.+",
"!!!.+",
"^^^.+",
"(((.+",
"))).+",
"###.+",
">>>.+",
"---.+",
"@@@@|"};
