<?xml version="1.0" encoding="UTF-8" standalone="no"?>
<!-- Created with Inkscape (http://www.inkscape.org/) -->

<svg
   xmlns:dc="http://purl.org/dc/elements/1.1/"
   xmlns:cc="http://creativecommons.org/ns#"
   xmlns:rdf="http://www.w3.org/1999/02/22-rdf-syntax-ns#"
   xmlns:svg="http://www.w3.org/2000/svg"
   xmlns="http://www.w3.org/2000/svg"
   xmlns:sodipodi="http://sodipodi.sourceforge.net/DTD/sodipodi-0.dtd"
   xmlns:inkscape="http://www.inkscape.org/namespaces/inkscape"
   width="11"
   height="11"
   id="svg2"
   version="1.1"
   inkscape:version="0.48.4 r9939"
   inkscape:export-filename="/usr/share/themes/Clearlooks-Phenix-HiDPI/gtk-3.0/img/resize-grip@2.png"
   inkscape:export-xdpi="180"
   inkscape:export-ydpi="180"
   sodipodi:docname="resize-grip.svg">
  <defs
     id="defs4">
    <linearGradient
       id="linearGradient5074">
      <stop
         style="stop-color:#b0adaa;stop-opacity:1;"
         offset="0"
         id="stop5076" />
      <stop
         style="stop-color:#f7f6f6;stop-opacity:1;"
         offset="1"
         id="stop5078" />
    </linearGradient>
  </defs>
  <sodipodi:namedview
     id="base"
     pagecolor="#000000"
     bordercolor="#666666"
     borderopacity="1.0"
     inkscape:pageopacity="0"
     inkscape:pageshadow="2"
     inkscape:zoom="69.810724"
     inkscape:cx="5.4003567"
     inkscape:cy="5.2751046"
     inkscape:document-units="px"
     inkscape:current-layer="layer1"
     showgrid="true"
     inkscape:snap-bbox="true"
     inkscape:snap-global="true"
     showborder="true"
     inkscape:window-width="1918"
     inkscape:window-height="2055"
     inkscape:window-x="1920"
     inkscape:window-y="72"
     inkscape:window-maximized="0"
     fit-margin-top="0"
     fit-margin-left="0"
     fit-margin-right="0"
     fit-margin-bottom="0"
     showguides="false"
     inkscape:bbox-paths="true">
    <inkscape:grid
       type="xygrid"
       id="grid2985"
       empspacing="2"
       visible="true"
       enabled="true"
       snapvisiblegridlinesonly="true"
       spacingx="0.5px"
       spacingy="0.5px"
       originx="21.000017px"
       originy="-21px" />
  </sodipodi:namedview>
  <metadata
     id="metadata7">
    <rdf:RDF>
      <cc:Work
         rdf:about="">
        <dc:format>image/svg+xml</dc:format>
        <dc:type
           rdf:resource="http://purl.org/dc/dcmitype/StillImage" />
        <dc:title></dc:title>
      </cc:Work>
    </rdf:RDF>
  </metadata>
  <g
     inkscape:label="Layer 1"
     inkscape:groupmode="layer"
     id="layer1"
     transform="translate(21.000017,-1020.3622)">
    <rect
       style="fill:#f7f6f6;fill-opacity:1;stroke:none"
       id="rect5082-7"
       width="2"
       height="2"
       x="1026.3622"
       y="-18.000017"
       rx="0"
       ry="0"
       transform="matrix(0,1,1,0,0,0)" />
    <rect
       style="fill:#b0adaa;fill-opacity:1;stroke:none"
       id="rect5084-9"
       width="1"
       height="1"
       x="1026.3622"
       y="-18.000017"
       transform="matrix(0,1,1,0,0,0)" />
    <rect
       style="fill:#f7f6f6;fill-opacity:1;stroke:none"
       id="rect5082-5"
       width="2"
       height="2"
       x="1029.3622"
       y="-21.000017"
       rx="0"
       ry="0"
       transform="matrix(0,1,1,0,0,0)" />
    <rect
       style="fill:#b0adaa;fill-opacity:1;stroke:none"
       id="rect5084-2"
       width="1"
       height="1"
       x="1029.3622"
       y="-21.000017"
       transform="matrix(0,1,1,0,0,0)" />
    <rect
       style="fill:#f7f6f6;fill-opacity:1;stroke:none"
       id="rect5082-7-5"
       width="2"
       height="2"
       x="1029.3622"
       y="-18.000017"
       rx="0"
       ry="0"
       transform="matrix(0,1,1,0,0,0)" />
    <rect
       style="fill:#b0adaa;fill-opacity:1;stroke:none"
       id="rect5084-9-5"
       width="1"
       height="1"
       x="1029.3622"
       y="-18.000017"
       transform="matrix(0,1,1,0,0,0)" />
    <rect
       style="fill:#f7f6f6;fill-opacity:1;stroke:none"
       id="rect5082-2"
       width="2"
       height="2"
       x="1026.3622"
       y="-15.000017"
       rx="0"
       ry="0"
       transform="matrix(0,1,1,0,0,0)" />
    <rect
       style="fill:#b0adaa;fill-opacity:1;stroke:none"
       id="rect5084-91"
       width="1"
       height="1"
       x="1026.3622"
       y="-15.000017"
       transform="matrix(0,1,1,0,0,0)" />
    <rect
       style="fill:#f7f6f6;fill-opacity:1;stroke:none"
       id="rect5082-7-0"
       width="2"
       height="2"
       x="1026.3622"
       y="-12.000017"
       rx="0"
       ry="0"
       transform="matrix(0,1,1,0,0,0)" />
    <rect
       style="fill:#b0adaa;fill-opacity:1;stroke:none"
       id="rect5084-9-9"
       width="1"
       height="1"
       x="1026.3622"
       y="-12.000017"
       transform="matrix(0,1,1,0,0,0)" />
    <rect
       style="fill:#f7f6f6;fill-opacity:1;stroke:none"
       id="rect5082-5-2"
       width="2"
       height="2"
       x="1029.3622"
       y="-15.000017"
       rx="0"
       ry="0"
       transform="matrix(0,1,1,0,0,0)" />
    <rect
       style="fill:#b0adaa;fill-opacity:1;stroke:none"
       id="rect5084-2-7"
       width="1"
       height="1"
       x="1029.3622"
       y="-15.000017"
       transform="matrix(0,1,1,0,0,0)" />
    <rect
       style="fill:#f7f6f6;fill-opacity:1;stroke:none"
       id="rect5082-7-5-0"
       width="2"
       height="2"
       x="1029.3622"
       y="-12.000017"
       rx="0"
       ry="0"
       transform="matrix(0,1,1,0,0,0)" />
    <rect
       style="fill:#b0adaa;fill-opacity:1;stroke:none"
       id="rect5084-9-5-7"
       width="1"
       height="1"
       x="1029.3622"
       y="-12.000017"
       transform="matrix(0,1,1,0,0,0)" />
    <rect
       style="fill:#f7f6f6;fill-opacity:1;stroke:none"
       id="rect5082-1"
       width="2"
       height="2"
       x="1023.3622"
       y="-12"
       rx="0"
       ry="0"
       transform="matrix(0,1,1,0,0,0)" />
    <rect
       style="fill:#b0adaa;fill-opacity:1;stroke:none"
       id="rect5084-5"
       width="1"
       height="1"
       x="1023.3622"
       y="-12"
       transform="matrix(0,1,1,0,0,0)" />
    <rect
       style="fill:#f7f6f6;fill-opacity:1;stroke:none"
       id="rect5082-5-1"
       width="2"
       height="2"
       x="1020.3622"
       y="-12"
       rx="0"
       ry="0"
       transform="matrix(0,1,1,0,0,0)" />
    <rect
       style="fill:#b0adaa;fill-opacity:1;stroke:none"
       id="rect5084-2-74"
       width="1"
       height="1"
       x="1020.3622"
       y="-12"
       transform="matrix(0,1,1,0,0,0)" />
    <rect
       style="fill:#f7f6f6;fill-opacity:1;stroke:none"
       id="rect5082"
       width="2"
       height="2"
       x="1023.3622"
       y="-15"
       rx="0"
       ry="0"
       transform="matrix(0,1,1,0,0,0)" />
    <rect
       style="fill:#b0adaa;fill-opacity:1;stroke:none"
       id="rect5084"
       width="1"
       height="1"
       x="1023.3622"
       y="-15"
       transform="matrix(0,1,1,0,0,0)" />
  </g>
</svg>
